HIERARCHY
ROOT Hips
{
    OFFSET 0.000000 0.000000 0.000000
    CHANNELS 6 Xposition Yposition Zposition Zrotation Xrotation Yrotation
    JOINT Spine
    {
        OFFSET -0.000000 0.072775 0.000000
        CHANNELS 3 Zrotation Xrotation Yrotation
        JOINT Spine1
        {
            OFFSET -0.000000 0.195886 0.000000
            CHANNELS 3 Zrotation Xrotation Yrotation
            JOINT Neck
            {
                OFFSET -0.000000 0.195082 0.017735
                CHANNELS 3 Zrotation Xrotation Yrotation
                JOINT Head
                {
                    OFFSET -0.000000 0.124250 -0.017750
                    CHANNELS 3 Zrotation Xrotation Yrotation
                    End Site
                    {
                        OFFSET -0.000000 0.177500 0.000000
                    }
                }
            }
            JOINT LeftShoulder
            {
                OFFSET 0.035772 0.183979 -0.000787
                CHANNELS 3 Zrotation Xrotation Yrotation
                JOINT LeftArm
                {
                    OFFSET 0.089258 0.000000 0.000000
                    CHANNELS 3 Zrotation Xrotation Yrotation
                    JOINT LeftForeArm
                    {
                        OFFSET 0.285064 0.000000 0.000000
                        CHANNELS 3 Zrotation Xrotation Yrotation
                        JOINT LeftHand
                        {
                            OFFSET 0.227012 0.000000 0.000000
                            CHANNELS 3 Zrotation Xrotation Yrotation
                            JOINT LeftHandThumb1
                            {
                                OFFSET 0.022188 -0.013313 0.044375
                                CHANNELS 3 Zrotation Xrotation Yrotation
                                JOINT LeftHandThumb2
                                {
                                    OFFSET 0.026625 0.000000 0.000000
                                    CHANNELS 3 Zrotation Xrotation Yrotation
                                    JOINT LeftHandThumb3
                                    {
                                        OFFSET 0.026625 0.000000 0.000000
                                        CHANNELS 3 Zrotation Xrotation Yrotation
                                        End Site
                                        {
                                            OFFSET 0.023630 0.000000 0.000000
                                        }
                                    }
                                }
                            }
                            JOINT LeftHandIndex1
                            {
                                OFFSET 0.079875 0.000000 0.031063
                                CHANNELS 3 Zrotation Xrotation Yrotation
                                JOINT LeftHandIndex2
                                {
                                    OFFSET 0.044375 0.000000 0.000000
                                    CHANNELS 3 Zrotation Xrotation Yrotation
                                    JOINT LeftHandIndex3
                                    {
                                        OFFSET 0.022188 0.000000 0.000000
                                        CHANNELS 3 Zrotation Xrotation Yrotation
                                        End Site
                                        {
                                            OFFSET 0.019691 0.000000 0.000000
                                        }
                                    }
                                }
                            }
                            JOINT LeftHandMiddle1
                            {
                                OFFSET 0.079875 0.000000 0.010295
                                CHANNELS 3 Zrotation Xrotation Yrotation
                                JOINT LeftHandMiddle2
                                {
                                    OFFSET 0.048813 0.000000 0.000000
                                    CHANNELS 3 Zrotation Xrotation Yrotation
                                    JOINT LeftHandMiddle3
                                    {
                                        OFFSET 0.026625 0.000000 0.000000
                                        CHANNELS 3 Zrotation Xrotation Yrotation
                                        End Site
                                        {
                                            OFFSET 0.023630 0.000000 0.000000
                                        }
                                    }
                                }
                            }
                            JOINT LeftHandRing1
                            {
                                OFFSET 0.075438 0.000000 -0.010295
                                CHANNELS 3 Zrotation Xrotation Yrotation
                                JOINT LeftHandRing2
                                {
                                    OFFSET 0.044375 0.000000 0.000000
                                    CHANNELS 3 Zrotation Xrotation Yrotation
                                    JOINT LeftHandRing3
                                    {
                                        OFFSET 0.022188 0.000000 0.000000
                                        CHANNELS 3 Zrotation Xrotation Yrotation
                                        End Site
                                        {
                                            OFFSET 0.019691 0.000000 0.000000
                                        }
                                    }
                                }
                            }
                            JOINT LeftHandPinky1
                            {
                                OFFSET 0.071000 0.000000 -0.031063
                                CHANNELS 3 Zrotation Xrotation Yrotation
                                JOINT LeftHandPinky2
                                {
                                    OFFSET 0.035500 0.000000 0.000000
                                    CHANNELS 3 Zrotation Xrotation Yrotation
                                    JOINT LeftHandPinky3
                                    {
                                        OFFSET 0.017750 0.000000 0.000000
                                        CHANNELS 3 Zrotation Xrotation Yrotation
                                        End Site
                                        {
                                            OFFSET 0.015753 0.000000 0.000000
                                        }
                                    }
                                }
                            }
                        }
                    }
                }
            }
            JOINT RightShoulder
            {
                OFFSET -0.035163 0.183979 -0.000787
                CHANNELS 3 Zrotation Xrotation Yrotation
                JOINT RightArm
                {
                    OFFSET -0.089258 0.000000 0.000000
                    CHANNELS 3 Zrotation Xrotation Yrotation
                    JOINT RightForeArm
                    {
                        OFFSET -0.285064 0.000000 0.000000
                        CHANNELS 3 Zrotation Xrotation Yrotation
                        JOINT RightHand
                        {
                            OFFSET -0.227012 0.000000 0.000000
                            CHANNELS 3 Zrotation Xrotation Yrotation
                            JOINT RightHandThumb1
                            {
                                OFFSET -0.022188 -0.013313 0.044375
                                CHANNELS 3 Zrotation Xrotation Yrotation
                                JOINT RightHandThumb2
                                {
                                    OFFSET -0.026625 0.000000 0.000000
                                    CHANNELS 3 Zrotation Xrotation Yrotation
                                    JOINT RightHandThumb3
                                    {
                                        OFFSET -0.026625 0.000000 0.000000
                                        CHANNELS 3 Zrotation Xrotation Yrotation
                                        End Site
                                        {
                                            OFFSET -0.023630 0.000000 0.000000
                                        }
                                    }
                                }
                            }
                            JOINT RightHandIndex1
                            {
                                OFFSET -0.079875 0.000000 0.031063
                                CHANNELS 3 Zrotation Xrotation Yrotation
                                JOINT RightHandIndex2
                                {
                                    OFFSET -0.044375 0.000000 0.000000
                                    CHANNELS 3 Zrotation Xrotation Yrotation
                                    JOINT RightHandIndex3
                                    {
                                        OFFSET -0.022188 0.000000 0.000000
                                        CHANNELS 3 Zrotation Xrotation Yrotation
                                        End Site
                                        {
                                            OFFSET -0.019691 0.000000 0.000000
                                        }
                                    }
                                }
                            }
                            JOINT RightHandMiddle1
                            {
                                OFFSET -0.079875 0.000000 0.010295
                                CHANNELS 3 Zrotation Xrotation Yrotation
                                JOINT RightHandMiddle2
                                {
                                    OFFSET -0.048813 0.000000 0.000000
                                    CHANNELS 3 Zrotation Xrotation Yrotation
                                    JOINT RightHandMiddle3
                                    {
                                        OFFSET -0.026625 0.000000 0.000000
                                        CHANNELS 3 Zrotation Xrotation Yrotation
                                        End Site
                                        {
                                            OFFSET -0.023630 0.000000 0.000000
                                        }
                                    }
                                }
                            }
                            JOINT RightHandRing1
                            {
                                OFFSET -0.075438 0.000000 -0.010295
                                CHANNELS 3 Zrotation Xrotation Yrotation
                                JOINT RightHandRing2
                                {
                                    OFFSET -0.044375 0.000000 0.000000
                                    CHANNELS 3 Zrotation Xrotation Yrotation
                                    JOINT RightHandRing3
                                    {
                                        OFFSET -0.022188 0.000000 0.000000
                                        CHANNELS 3 Zrotation Xrotation Yrotation
                                        End Site
                                        {
                                            OFFSET -0.019691 0.000000 0.000000
                                        }
                                    }
                                }
                            }
                            JOINT RightHandPinky1
                            {
                                OFFSET -0.071000 0.000000 -0.031063
                                CHANNELS 3 Zrotation Xrotation Yrotation
                                JOINT RightHandPinky2
                                {
                                    OFFSET -0.035500 0.000000 0.000000
                                    CHANNELS 3 Zrotation Xrotation Yrotation
                                    JOINT RightHandPinky3
                                    {
                                        OFFSET -0.017750 0.000000 0.000000
                                        CHANNELS 3 Zrotation Xrotation Yrotation
                                        End Site
                                        {
                                            OFFSET -0.015753 0.000000 0.000000
                                        }
                                    }
                                }
                            }
                        }
                    }
                }
            }
        }
    }
    JOINT LeftUpLeg
    {
        OFFSET 0.088750 0.000000 0.000000
        CHANNELS 3 Zrotation Xrotation Yrotation
        JOINT LeftLeg
        {
            OFFSET -0.000000 -0.379026 0.000000
            CHANNELS 3 Zrotation Xrotation Yrotation
            JOINT LeftFoot
            {
                OFFSET -0.000000 -0.385721 0.000000
                CHANNELS 3 Zrotation Xrotation Yrotation
                JOINT LeftToeBase
                {
                    OFFSET -0.000000 -0.057688 0.133125
                    CHANNELS 3 Zrotation Xrotation Yrotation
                    End Site
                    {
                        OFFSET -0.000000 0.000000 0.035500
                    }
                }
            }
        }
    }
    JOINT RightUpLeg
    {
        OFFSET -0.088750 0.000000 0.000000
        CHANNELS 3 Zrotation Xrotation Yrotation
        JOINT RightLeg
        {
            OFFSET -0.000000 -0.379026 0.000000
            CHANNELS 3 Zrotation Xrotation Yrotation
            JOINT RightFoot
            {
                OFFSET -0.000000 -0.385721 0.000000
                CHANNELS 3 Zrotation Xrotation Yrotation
                JOINT RightToeBase
                {
                    OFFSET -0.000000 -0.057688 0.133125
                    CHANNELS 3 Zrotation Xrotation Yrotation
                    End Site
                    {
                        OFFSET -0.000000 0.000000 0.035500
                    }
                }
            }
        }
    }
}
MOTION
Frames:    4
Frame Time:    0.040000
2.556608    0.837899    1.188877    -0.210019    -1.186703    -3.286139    1.328997    -6.46915    0.859259    -3.31361    5.899376    0.432239    5.606879    6.824613    3.058875    -7.208969    -3.115963    1.471334    17.848219    0.259827    -5.811606    -21.153141    -4.706883    0.032498    0.0    -1.793562    -0.292771    -4.865834    -10.706825    0.0    0.209317    6.149363    9.551419    -0.0    0.0    5.835876    -0.0    0.0    11.671752    15.315809    0.0    -0.0    0.0    0.0    0.0    0.0    0.0    0.0    9.170514    0.0    -0.0    -2.182158    0.0    0.0    -1.091079    0.0    0.0    3.025217    0.0    -0.0    -4.364316    0.0    0.0    -2.182158    0.0    0.0    -3.3063    0.0    0.0    -6.6126    0.0    0.0    -3.3063    0.0    0.0    -11.628121    1.501653    -1.968704    9.95372    -0.188446    2.704096    0.0    4.014909    -1.4951    10.185588    -20.055662    0.0    0.0    0.0    0.0    0.0    0.0    0.0    0.0    0.0    0.0    0.0    0.0    0.0    0.0    0.0    0.0    0.0    0.0    0.0    8.543505    0.0    -0.0    17.087015    0.0    -0.0    8.543505    0.0    -0.0    17.087013    0.0    -0.0    34.174026    0.0    -0.0    17.087013    0.0    -0.0    25.889414    0.0    -0.0    51.778828    0.0    -0.0    25.889414    0.0    -0.0    7.660817    5.07691    -8.706055    -0.2    6.053234    -1.0    -3.605412    -9.856642    11.780232    0.639964    -4.174946    -1.224258    -10.586024    9.500341    -3.147048    0.2    2.628675    -1.0    5.0    -7.05791    1.443515    -0.25933    -2.208282    1.563884
2.556525    0.837924    1.188885    -0.238193    -1.15996    -3.278196    1.357944    -6.481142    0.848209    -3.354923    5.882033    0.429734    5.598915    6.833198    3.065542    -7.189537    -2.985557    1.490685    17.853157    0.193351    -5.859247    -21.128109    -4.707908    0.118118    0.0    -1.736123    -0.298581    -4.8143    -10.847991    0.0    0.164685    6.190409    9.531612    -0.0    0.0    5.825586    -0.0    0.0    11.651173    15.314129    0.0    -0.0    0.0    0.0    0.0    0.0    0.0    0.0    9.202642    0.0    -0.0    -2.115645    0.0    0.0    -1.057823    0.0    0.0    3.091157    0.0    -0.0    -4.231291    0.0    0.0    -2.115646    0.0    0.0    -3.205523    0.0    0.0    -6.411047    0.0    0.0    -3.205523    0.0    0.0    -11.601153    1.509486    -1.960701    9.964828    -0.192979    2.705237    0.0    3.975926    -1.476914    10.094637    -19.940943    0.0    0.0    0.0    0.0    0.0    0.0    0.0    0.0    0.0    0.0    0.0    0.0    0.0    0.0    0.0    0.0    0.0    0.0    0.0    8.576557    0.0    -0.0    17.153112    0.0    -0.0    8.576557    0.0    -0.0    17.153114    0.0    -0.0    34.306225    0.0    -0.0    17.153114    0.0    -0.0    25.989565    0.0    -0.0    51.97913    0.0    -0.0    25.989565    0.0    -0.0    7.70404    5.045385    -8.638982    -0.2    6.064764    -1.0    -3.60431    -9.837587    11.764347    0.629813    -4.1771    -1.213546    -10.54043    9.481882    -3.139823    0.2    2.612535    -1.0    5.0    -6.99978    1.721062    -0.247854    -2.233155    1.558411
2.556463    0.837919    1.189022    -0.247261    -1.151897    -3.279712    1.356888    -6.494271    0.853422    -3.362987    5.884301    0.431965    5.572981    6.817921    3.065835    -7.175926    -2.816405    1.505162    17.827854    0.206305    -5.859853    -21.081774    -4.737835    0.101084    0.0    -1.66553    -0.281593    -4.837037    -10.796381    0.0    0.219611    6.21605    9.682228    -0.0    0.0    5.917789    -0.0    0.0    11.835579    15.472709    0.0    -0.0    0.0    0.0    0.0    0.0    0.0    0.0    9.315098    0.0    -0.0    -2.103235    0.0    0.0    -1.051617    0.0    0.0    3.157486    0.0    -0.0    -4.206469    0.0    0.0    -2.103235    0.0    0.0    -3.186719    0.0    0.0    -6.373437    0.0    0.0    -3.186719    0.0    0.0    -11.624733    1.510214    -1.96381    9.951485    -0.235434    2.722905    0.0    4.171743    -1.483347    9.935247    -19.837675    0.0    0.0    0.0    0.0    0.0    0.0    0.0    0.0    0.0    0.0    0.0    0.0    0.0    0.0    0.0    0.0    0.0    0.0    0.0    8.997264    0.0    -0.0    17.994522    0.0    -0.0    8.997264    0.0    -0.0    17.994528    0.0    -0.0    35.989056    0.0    -0.0    17.994528    0.0    -0.0    27.264433    0.0    -0.0    54.528866    0.0    -0.0    27.264433    0.0    -0.0    7.710673    5.050215    -8.641232    -0.2    6.064063    -1.0    -3.617703    -9.861351    11.772468    0.630382    -4.167724    -1.212914    -10.527062    9.490921    -3.167919    0.2    2.600593    -1.0    5.0    -7.08877    1.645233    -0.343154    -2.076405    1.630484
2.556406    0.837925    1.189134    -0.256942    -1.121468    -3.299883    1.367127    -6.532356    0.863389    -3.397594    5.891257    0.436834    5.537933    6.776189    3.052032    -7.084311    -2.6163    1.51917    17.845249    0.206541    -5.85571    -21.090282    -4.642947    0.112969    0.0    -1.774737    -0.287536    -4.871213    -10.771577    0.0    0.270929    6.163999    9.696725    -0.0    0.0    5.924554    -0.0    0.0    11.849106    15.532644    0.0    -0.0    0.0    0.0    0.0    0.0    0.0    0.0    9.358138    0.0    -0.0    -2.097469    0.0    0.0    -1.048735    0.0    0.0    3.18363    0.0    -0.0    -4.194939    0.0    0.0    -2.097469    0.0    0.0    -3.177984    0.0    0.0    -6.355967    0.0    0.0    -3.177984    0.0    0.0    -11.661914    1.484235    -1.968457    9.982285    -0.183043    2.724822    0.0    4.058088    -1.518567    10.076133    -19.976051    0.0    0.0    0.0    0.0    0.0    0.0    0.0    0.0    0.0    0.0    0.0    0.0    0.0    0.0    0.0    0.0    0.0    0.0    0.0    8.474636    0.0    -0.0    16.949274    0.0    -0.0    8.474636    0.0    -0.0    16.949268    0.0    -0.0    33.898544    0.0    -0.0    16.949268    0.0    -0.0    25.680714    0.0    -0.0    51.361423    0.0    -0.0    25.680714    0.0    -0.0    7.724928    5.046318    -8.629269    -0.2    6.038449    -1.0    -3.614621    -9.85501    11.757014    0.641609    -4.158502    -1.22385    -10.517758    9.467923    -3.136141    0.2    2.601841    -1.0    5.0    -7.030671    1.588079    -0.289522    -2.121215    1.566727
